<svg viewBox="0 0 269 130" xmlns="http://www.w3.org/2000/svg">
    <g fill="none" fill-rule="evenodd">
        <path fill="none" d="M0 0h269v130H0z"></path>
        <g fill-rule="nonzero">
            <path fill="#FFF" d="M39.965 30.29h69.339v69.339H39.965z"></path>
            <path fill="#DB0011" d="M143.974 65.04l-34.67-34.75v69.42z"></path>
            <path fill="#DB0011" d="M74.635 65.04l34.67-34.75h-69.34zM5.213 65.04l34.752 34.67V30.29zM74.635 65.04l-34.67 34.67h69.34z"></path><path fill="#000" d="M174.402 62.349H161.84v-11.91h-6.281V79.48h6.281v-12.4h12.563v12.4h6.282V50.44h-6.282zM199.854 62.838l-2.448-.734c-4.079-1.305-6.036-1.958-6.036-4.079 0-2.61 2.283-3.828 4.65-3.828 2.936 0 4.483 1.55 4.73 4.156h6.282c-.08-6.444-4.975-8.402-10.61-8.402-5.468 0-11.501 2.203-11.501 8.647 0 5.22 4.568 7.016 9.136 8.322l2.122.57c3.262.985 5.22 1.631 5.22 3.916 0 2.855-2.936 4.156-5.469 4.156-3.426 0-5.221-1.877-5.302-4.976h-6.281c.08 6.933 5.22 9.463 11.501 9.463 5.71 0 12.074-2.53 12.155-9.055.008-4.893-3.175-6.605-8.15-8.156zM227.752 64.389c3.427-.898 5.797-2.774 5.797-6.527 0-3.915-2.692-6.2-6.2-7.015a26.84 26.84 0 00-5.71-.328h-10.116l.082 28.96h11.42c5.058 0 11.584-1.469 11.584-8.076-.005-4.325-2.941-6.28-6.857-7.014zm-10.115-9.546h4.405c2.61 0 5.221.816 5.221 3.835 0 3.345-2.855 3.916-5.628 3.916h-3.998v-7.75zm4.569 20.314h-4.651v-8.485h4.977c3.018 0 5.468.657 5.468 4.242s-2.858 4.243-5.794 4.243zM256.385 70.914a5 5 0 01-5.383 4.484c-5.469 0-7.18-5.383-7.18-10.033 0-4.65 1.714-10.769 7.425-10.769a4.64 4.64 0 015.057 4.406h6.526c-.163-6.527-5.797-9.136-11.583-9.136-9.22 0-13.869 6.444-13.869 15.336 0 8.893 4.156 14.847 13.542 14.847 6.036 0 11.339-2.448 11.992-9.137l-6.527.002z"></path>
        </g>
    </g>
</svg>